<?xml version="1.0" encoding="UTF-8"?> <svg xmlns="http://www.w3.org/2000/svg" width="80" height="44" viewBox="0 0 80 44" fill="none"><path d="M7.15 20.225C11.4 20.225 13.675 17.375 13.675 13.475C13.675 9.55 11.35 6.7 7.15 6.7C2.95 6.7 0.625 9.55 0.625 13.475C0.625 17.4 2.9 20.225 7.15 20.225ZM7.15 16.85C5.575 16.85 4.55 15.85 4.55 13.475C4.55 11.125 5.55 10.075 7.15 10.075C8.75 10.075 9.75 11.1 9.75 13.475C9.75 15.85 8.75 16.85 7.15 16.85ZM15.0566 20H18.9066V12.75C18.9066 11.175 20.0066 10.2 21.3816 10.2C22.9066 10.2 23.5816 11.1 23.5816 12.6V20H27.4316V11.4C27.4316 8.5 25.4816 6.7 22.5816 6.7C20.8816 6.7 19.7316 7.325 19.0066 8.175H18.9066V1.5H15.0566V20ZM31.1307 5.6C32.6057 5.6 33.4557 4.75 33.4557 3.35C33.4557 1.975 32.6057 1.125 31.1307 1.125C29.6057 1.125 28.8057 1.975 28.8057 3.35C28.8057 4.75 29.6057 5.6 31.1307 5.6ZM29.1807 20H33.0307V6.925H29.1807V20ZM40.6842 20.225C44.9342 20.225 47.2092 17.375 47.2092 13.475C47.2092 9.55 44.8842 6.7 40.6842 6.7C36.4842 6.7 34.1592 9.55 34.1592 13.475C34.1592 17.4 36.4342 20.225 40.6842 20.225ZM40.6842 16.85C39.1092 16.85 38.0842 15.85 38.0842 13.475C38.0842 11.125 39.0842 10.075 40.6842 10.075C42.2842 10.075 43.2842 11.1 43.2842 13.475C43.2842 15.85 42.2842 16.85 40.6842 16.85ZM7 42.225C8.225 42.225 9.25 42 9.65 41.85V38.65H9.4C9 38.8 8.575 38.875 8.15 38.875C7 38.875 6.475 38.35 6.475 37.125V32.2H9.6V28.925H6.475V25.5H6.225L2.8 26.2V28.925H0.5V32.2H2.625V38.05C2.625 40.425 3.975 42.225 7 42.225ZM11.5166 42H15.3666V34.75C15.3666 33.175 16.4666 32.2 17.8416 32.2C19.3666 32.2 20.0416 33.1 20.0416 34.6V42H23.8916V33.4C23.8916 30.5 21.9416 28.7 19.0416 28.7C17.3416 28.7 16.1916 29.325 15.4666 30.175H15.3666V23.5H11.5166V42ZM31.4906 42.225C35.0656 42.225 37.1406 40.15 37.4906 37.8H33.7656C33.5406 38.4 32.9156 39.1 31.4906 39.1C29.7406 39.1 28.9656 38.025 28.9406 36.5H37.6656V35.075C37.6656 31.525 35.4156 28.7 31.4156 28.7C27.1656 28.7 25.0156 31.775 25.0156 35.475C25.0156 39.225 27.3656 42.225 31.4906 42.225ZM28.9656 34.075C29.0406 32.825 29.7656 31.85 31.4156 31.85C32.9406 31.85 33.6656 32.825 33.7406 34.075H28.9656ZM54.3322 28.7C52.3822 28.7 51.1072 29.625 50.4322 30.475H50.3572C49.5822 29.325 48.2322 28.7 46.4572 28.7C44.7572 28.7 43.6072 29.325 42.8822 30.175H42.7822L42.4822 28.925H39.0322V42H42.8822V34.75C42.8822 33.175 43.8822 32.2 45.2572 32.2C46.7822 32.2 47.3072 33.1 47.3072 34.6V42H51.1072V34.75C51.1072 33.2 51.9072 32.2 53.2822 32.2C54.8072 32.2 55.3322 33.1 55.3322 34.6V42H59.1822V33.4C59.1822 30.5 57.2322 28.7 54.3322 28.7ZM66.7943 42.225C70.3693 42.225 72.4443 40.15 72.7943 37.8H69.0693C68.8443 38.4 68.2193 39.1 66.7943 39.1C65.0443 39.1 64.2693 38.025 64.2443 36.5H72.9693V35.075C72.9693 31.525 70.7193 28.7 66.7193 28.7C62.4693 28.7 60.3193 31.775 60.3193 35.475C60.3193 39.225 62.6693 42.225 66.7943 42.225ZM64.2693 34.075C64.3443 32.825 65.0693 31.85 66.7193 31.85C68.2443 31.85 68.9693 32.825 69.0443 34.075H64.2693ZM76.2109 42.225C77.6359 42.225 78.4609 41.375 78.4609 39.975C78.4609 38.6 77.6359 37.75 76.2109 37.75C74.7359 37.75 73.9609 38.6 73.9609 39.975C73.9609 41.375 74.7359 42.225 76.2109 42.225Z" fill="#17161A"></path></svg> 